<svg xmlns="http://www.w3.org/2000/svg" width="1200" height="630" viewBox="0 0 1320 693" stroke-width="12" fill="none"><rect fill="#1a1a4d" width="1800" height="945" x="-240" y="-126"/><path stroke="#4bf" d="M-240 663h1800"/><path fill="#4bf" d="m1010 503v-20c0-1 0-2 0-3-21-11-44-22-67-33v13c0 2 0 2 1 3 14 7 37 18 56 28v3c-18 9-42 20-56 27-1 1-1 1-1 3v13c23-11 50-24 67-34zm-125 24c-13 0-22-2-31-7h-2v12c0 1 0 2 1 2 5 4 17 7 32 7 22 0 36-10 36-26 0-12-9-20-23-23l-16-3c-10-3-13-5-13-10 0-7 6-11 20-11 11 0 17 1 25 4h3v-12c0-1-1-2-2-3-5-1-12-4-24-4-24 0-37 11-37 26 0 12 7 19 23 22l16 3c9 2 13 6 13 11 0 7-6 12-21 12zM785 453c-17 0-28 12-28 32v25c0 20 11 32 28 32 11 0 19-6 25-15h2v11c0 1 1 2 2 2h13V422c0-1-1-2-2-2h-13v48h-2c-6-10-14-15-25-15zm-9 70c-3-3-5-8-5-15v-20c0-14 7-21 18-21 8 0 16 5 23 14v33c-7 10-15 14-23 14-6 0-10-2-13-5zm-70 17v-57c8-10 14-15 24-15 3 0 6 1 8 2h2v-13c0-1 0-2-1-2-1-1-4-2-8-2-9 0-16 5-22 17h-3v-13c0-1-1-2-2-2h-14v83c0 1 1 2 2 2zm-78-87c-21 0-37 15-37 36v18c0 20 15 35 37 35 20 0 36-15 36-36v-18c0-20-14-35-36-35zm0 14c7 0 12 2 15 5 4 4 7 10 7 17v16c0 13-8 23-23 23-6 0-12-2-15-6-4-3-6-9-6-16v-17c0-13 8-22 22-22zM508 455c-6 22-13 49-17 72h-3c-3-23-10-52-14-70 0-2-1-2-2-2h-14c7 27 16 62 20 81 1 3 1 4 3 4h18c6-25 11-39 15-65h3c5 27 10 43 15 62 0 2 1 3 2 3h18c7-27 15-60 21-83 0-2-1-2-2-2h-13c-5 23-11 46-15 72h-2c-4-23-11-47-17-70-1-2-1-2-2-2zm-102 72c-13 0-21-2-30-7h-3v12c0 1 1 2 1 2 6 4 17 7 32 7 23 0 36-10 36-26 0-12-8-20-22-23l-16-3c-11-3-14-5-14-10 0-7 6-11 21-11 10 0 17 1 25 4h2v-12c0-1 0-2-2-3-4-1-12-4-23-4-24 0-37 11-37 26 0 12 6 19 22 22l16 3c10 2 14 6 14 11 0 7-6 12-22 12zm-88 0c-13 0-21-2-30-7h-3v12c0 1 1 2 1 2 6 4 17 7 32 7 23 0 36-10 36-26 0-12-8-20-22-23l-16-3c-11-3-14-5-14-10 0-7 6-11 21-11 10 0 17 1 25 4h2v-12c0-1 0-2-2-3-4-1-12-4-23-4-24 0-37 11-37 26 0 12 6 19 22 22l16 3c10 2 14 6 14 11 0 7-6 12-22 12zm-59-43c0-22-10-31-34-31-13 0-26 4-28 6 0 0 0 1 0 1v12h2c9-4 16-5 26-5 15 0 20 4 20 17v7h-29c-16 0-25 9-25 23v5c0 14 9 23 24 23 13 0 23-6 28-16h2c1 10 8 14 17 14h6c1 0 1 0 1-2v-11h-4c-2 0-3 0-4-1-1-2-2-3-2-6zm-53 33v-5c0-3 0-6 2-7 2-2 6-4 10-4h27v15c-9 9-17 12-27 12-8 0-12-4-12-11zm-86 23v-39h20c25 0 36-12 36-31v-11c0-23-14-31-36-31H94.8v12c0 1 0.6 1 1.8 1h7.4v97c0 1 1 2 2 2zm20-99c8 0 13 2 17 5 2 3 4 7 4 12v12c0 12-7 18-21 18h-20v-47z"/><path fill="#fff" d="m825 162c-25 0-43 19-43 46v1c0 26 19 43 45 43 11 0 20-2 26-7 3-3 5-7 5-14 0-2 0-4-1-6h-1c-8 5-18 8-29 8-9 0-15-1-20-4-2-4-3-9-3-16v0c0-2 0-3 0-4l1-1c3 3 8 5 14 5h36c3 0 6-3 6-15v-1c0-21-14-35-36-35zm2 18c4 0 6 0 9 1 3 4 3 9 3 14 0 1 0 3 0 5h-34c3-14 11-20 22-20zm-63 45h-1c-5 4-12 5-18 5-4 0-6 0-8-1-1-2-1-4-1-7v-36h28c1-3 1-6 1-9 0-10-2-13-10-13h-19v-13c0-10-6-14-14-14-3 0-6 0-10 1 2 5 2 10 2 15v11h-16c-1 1-1 2-1 4 0 10 4 16 17 17v39c0 17 12 28 29 28 9 0 15-2 18-5 2-4 4-9 4-16 0-2 0-4-1-6zm-80-32c0-14-13-31-35-31-16 0-23 2-27 6-3 2-4 7-4 11 0 3 0 6 1 7h1c8-2 15-3 24-3 8 0 14 1 20 4-1 6-2 11-3 16-5-2-13-3-22-3-15 0-29 14-29 25v1c0 17 9 26 25 26 12 0 22-9 26-17h1c3 8 9 16 18 16 3 0 6-1 10-5 3-3 5-9 5-15 0-2 0-2 0-4h-1c-2 2-5 3-7 3-1 0-2-1-3-1zm-51 32v0c0-3 1-6 2-9 2-2 6-2 10-2 5 0 10 0 16 1v9c-6 6-13 9-19 9-7 0-9-2-9-8zm-65 25v-34c7-20 13-29 22-29 4 0 6 1 9 3h1c1-4 2-8 2-12 0-8-2-12-4-15-2-2-4-2-7-2-10 0-17 10-22 29h-1v-1c0-20-7-26-18-26-2 0-4 0-6 1 2 4 3 10 3 15v58c0 8 4 14 15 14 2 0 4-1 6-1zm-77-88c-25 0-43 19-43 46v1c0 26 18 43 45 43 10 0 20-2 25-7 4-3 5-7 5-14 0-2 0-4 0-6h-1c-9 5-19 8-29 8-10 0-15-1-21-4-2-4-3-9-3-16v0c0-2 0-3 1-4v-1c3 3 9 5 15 5h36c3 0 5-3 5-15v-1c0-21-13-35-35-35zm2 18c4 0 6 0 8 1 3 4 4 9 4 14 0 1 0 3 0 5h-34c3-14 11-20 22-20zm-117 70v-34c8-22 17-30 25-30 3 0 5 1 7 4-3 15-5 27-5 39 0 17 7 22 19 22 3 0 5 0 8-1-2-9-3-15-3-25v-37c0-12-8-26-18-26-13 0-26 12-32 28h-1v-1c0-20-8-26-18-26-2 0-4 0-7 1 3 4 3 10 3 15v58c0 8 4 13 16 13 2 0 4 0 6 0zm-77-88c-25 0-43 19-43 46v1c0 26 18 43 45 43 10 0 20-2 25-7 4-3 5-7 5-14 0-2 0-4 0-6h-1c-9 5-19 8-29 8-10 0-15-1-21-4-2-4-3-9-3-16v0c0-2 0-3 1-4v-1c3 3 9 5 15 5h36c3 0 5-3 5-15v-1c0-21-13-35-35-35zm2 18c4 0 6 0 8 1 3 4 4 9 4 14 0 1 0 3 0 5h-34c3-14 11-20 22-20zm-101 14c-1 1-1 3-1 4 0 11 6 15 21 15 0 1 0 2 0 3 0 10-7 16-20 16-14 0-22-5-26-15-1-3-1-7-1-11v-2c0-27 14-49 33-49 2 0 4 0 6 1 0 4-1 8-1 13 0 6 5 8 13 8 3 0 7 0 9-1v-12c0-10-3-16-9-22-5-5-12-7-21-7-30 0-51 30-51 69v3c0 28 16 46 47 46 12 0 23-4 29-9 5-5 8-10 8-18 0-6-1-9-4-12v-1h9v-1c0-13-2-18-10-18z"/><rect stroke="#fff" width="820" height="200" x="96" y="96" ry="48"/></svg>
