<?xml version="1.0" encoding="UTF-8" standalone="no"?>
<!-- Created with Inkscape (http://www.inkscape.org/) -->

<svg
   width="57.961235mm"
   height="22.366072mm"
   viewBox="0 0 57.961235 22.366071"
   version="1.1"
   id="svg5"
   inkscape:version="1.2 (dc2aedaf03, 2022-05-15)"
   sodipodi:docname="logos-darkmode.svg"
   xmlns:inkscape="http://www.inkscape.org/namespaces/inkscape"
   xmlns:sodipodi="http://sodipodi.sourceforge.net/DTD/sodipodi-0.dtd"
   xmlns="http://www.w3.org/2000/svg"
   xmlns:svg="http://www.w3.org/2000/svg">
  <sodipodi:namedview
     id="namedview7"
     pagecolor="#000000"
     bordercolor="#000000"
     borderopacity="1"
     inkscape:showpageshadow="0"
     inkscape:pageopacity="0"
     inkscape:pagecheckerboard="0"
     inkscape:deskcolor="#2b2b2b"
     inkscape:document-units="mm"
     showgrid="false"
     inkscape:zoom="2.7703404"
     inkscape:cx="68.944596"
     inkscape:cy="118.57749"
     inkscape:window-width="1860"
     inkscape:window-height="980"
     inkscape:window-x="30"
     inkscape:window-y="30"
     inkscape:window-maximized="1"
     inkscape:current-layer="layer1"
     borderlayer="false">
    <inkscape:page
       x="0"
       y="0"
       width="57.961235"
       height="22.36607"
       id="page2298"
       inkscape:export-filename="logo-fulltext.png"
       inkscape:export-xdpi="224.37"
       inkscape:export-ydpi="224.37" />
    <inkscape:page
       x="-0.00010322042"
       y="39.641098"
       width="10.689142"
       height="22.366049"
       id="page2300" />
    <inkscape:page
       x="28.684792"
       y="39.641098"
       width="10.689137"
       height="22.366049"
       id="page2302" />
  </sodipodi:namedview>
  <defs
     id="defs2" />
  <g
     inkscape:label="Layer 1"
     inkscape:groupmode="layer"
     id="layer1"
     transform="translate(-38.727605,-20.89774)">
    <g
       id="g2042"
       transform="translate(-25.421989,-65.842038)">
      <path
         id="path1107"
         style="font-weight:600;font-size:35.2777px;line-height:1.25;font-family:'Smooch Sans';-inkscape-font-specification:'Smooch Sans Semi-Bold';text-align:center;letter-spacing:0px;text-anchor:middle;fill:#cc0000;fill-opacity:1;stroke-width:0.264583"
         d="m 69.264506,136.75238 -0.211357,2.53989 h 2.78691 v 2.85771 l 2.998784,-0.35295 v -5.04465 h -2.081527 -0.917257 z"
         sodipodi:nodetypes="ccccccccc" />
      <path
         style="font-weight:600;font-size:35.2777px;line-height:1.25;font-family:'Smooch Sans';-inkscape-font-specification:'Smooch Sans Semi-Bold';text-align:center;letter-spacing:0px;text-anchor:middle;stroke-width:0.264583;fill:#ffffff;fill-opacity:1"
         d="m 69.511701,148.74693 c -1.810922,0 -3.163234,-0.34102 -4.056935,-1.02305 -0.870183,-0.68204 -1.305275,-1.6463 -1.305275,-2.89278 v -14.25219 c 0,-1.45814 0.411573,-2.51647 1.234719,-3.17499 0.846665,-0.68203 2.187217,-1.02305 4.021658,-1.02305 1.83444,0 3.198511,0.32926 4.092213,0.98777 0.893701,0.65852 1.340552,1.74037 1.340552,3.24555 v 2.57527 l -2.998604,0.38805 v -2.22249 c 0,-0.79963 -0.15287,-1.41111 -0.45861,-1.83444 -0.30574,-0.44685 -0.940739,-0.67027 -1.904996,-0.67027 -0.91722,0 -1.5287,0.23518 -1.83444,0.70555 -0.282221,0.44685 -0.423332,1.03482 -0.423332,1.76389 v 12.8058 c 0,0.61148 0.164629,1.11713 0.493887,1.51694 0.329259,0.39981 0.91722,0.59972 1.763885,0.59972 0.870183,0 1.481664,-0.19991 1.834441,-0.59972 0.352777,-0.39981 0.529165,-0.90546 0.529165,-1.51694 v -1.97554 l 2.998604,-0.35278 v 3.03387 c 0,1.24648 -0.45861,2.21074 -1.37583,2.89278 -0.91722,0.68203 -2.234254,1.02305 -3.951102,1.02305 z"
         id="path2007" />
    </g>
    <text
       xml:space="preserve"
       style="font-size:35.2777px;line-height:1.25;font-family:'Smooch Sans';-inkscape-font-specification:'Smooch Sans';text-align:center;letter-spacing:0px;text-anchor:middle;stroke-width:0.264583"
       x="21.263252"
       y="193.72275"
       id="text1090"><tspan
         sodipodi:role="line"
         id="tspan1088"
         style="stroke-width:0.264583"
         x="21.263252"
         y="193.72275" /></text>
    <text
       xml:space="preserve"
       style="font-size:35.2777px;line-height:1.25;font-family:'Smooch Sans';-inkscape-font-specification:'Smooch Sans';text-align:center;letter-spacing:0px;text-anchor:middle;fill:#ff0000;fill-opacity:1;stroke-width:0.264583"
       x="21.263252"
       y="193.72275"
       id="text1096"><tspan
         sodipodi:role="line"
         id="tspan1094"
         style="fill:#ff0000;fill-opacity:1;stroke-width:0.264583"
         x="21.263252"
         y="193.72275" /></text>
    <g
       id="g1111"
       style="font-size:35.2777px;line-height:1.25;font-family:'Smooch Sans';-inkscape-font-specification:'Smooch Sans';text-align:center;letter-spacing:0px;text-anchor:middle;fill:#000000;fill-opacity:1;stroke-width:0.264583"
       transform="translate(2.8758047,37.504391)" />
    <path
       id="path2010"
       style="font-weight:600;font-size:35.2777px;line-height:1.25;font-family:'Smooch Sans';-inkscape-font-specification:'Smooch Sans Semi-Bold';text-align:center;letter-spacing:0px;text-anchor:middle;fill:#ffffff;fill-opacity:0.85000002;stroke-width:0.264583"
       d="m 52.273999,20.96793 v 22.04879 h 2.963644 V 20.96793 Z"
       sodipodi:nodetypes="ccccc" />
    <path
       id="path2012"
       style="font-weight:600;font-size:35.2777px;line-height:1.25;font-family:'Smooch Sans';-inkscape-font-specification:'Smooch Sans Semi-Bold';text-align:center;letter-spacing:0px;text-anchor:middle;fill:#cc0000;fill-opacity:1;stroke-width:0.264583"
       d="m 58.341912,20.96802 v 5.291667 2.399336 1.586984 c 0,-0.70555 0.12939,-1.351974 0.38809,-1.939934 0.282219,-0.611479 0.79977,-1.10578 1.55236,-1.48208 0.776109,-0.376289 1.916825,-0.564306 3.422013,-0.564306 h -2.39882 V 20.96802 Z"
       sodipodi:nodetypes="cccccccccc" />
    <path
       id="path2014"
       style="font-weight:600;font-size:35.2777px;line-height:1.25;font-family:'Smooch Sans';-inkscape-font-specification:'Smooch Sans Semi-Bold';text-align:center;letter-spacing:0px;text-anchor:middle;fill:#cc0000;fill-opacity:1;stroke-width:0.264583"
       d="m 49.416644,36.31388 2.31e-4,-5.04468 h -5.574336 l -0.211357,2.53989 h 2.78691 l -5.2e-5,2.85757 z"
       sodipodi:nodetypes="ccccccc" />
    <path
       style="font-weight:600;font-size:35.2777px;line-height:1.25;font-family:'Smooch Sans';-inkscape-font-specification:'Smooch Sans Semi-Bold';text-align:center;letter-spacing:0px;text-anchor:middle;stroke-width:0.264583;fill:#ffffff;fill-opacity:1"
       d="m 44.089712,43.26358 c -1.810922,0 -3.163234,-0.34102 -4.056935,-1.02305 -0.870183,-0.68204 -1.305275,-1.6463 -1.305275,-2.89278 V 25.09556 c 0,-1.45814 0.411573,-2.51647 1.234719,-3.17499 0.846665,-0.68203 2.187217,-1.02305 4.021658,-1.02305 1.83444,0 3.198511,0.32926 4.092213,0.98777 0.893701,0.65852 1.340552,1.74037 1.340552,3.24555 v 2.57527 l -2.998604,0.38805 v -2.22249 c 0,-0.79963 -0.15287,-1.41111 -0.45861,-1.83444 -0.30574,-0.44685 -0.940739,-0.67027 -1.904996,-0.67027 -0.91722,0 -1.5287,0.23518 -1.83444,0.70555 -0.282221,0.44685 -0.423332,1.03482 -0.423332,1.76389 v 12.8058 c 0,0.61148 0.164629,1.11713 0.493887,1.51694 0.329259,0.39981 0.91722,0.59972 1.763885,0.59972 0.870183,0 1.481664,-0.19991 1.834441,-0.59972 0.352777,-0.39981 0.529165,-0.90546 0.529165,-1.51694 v -1.97554 l 2.998604,-0.35278 v 3.03387 c 0,1.24648 -0.45861,2.21074 -1.37583,2.89278 -0.91722,0.68203 -2.234254,1.02305 -3.951102,1.02305 z"
       id="path2016" />
    <path
       style="font-weight:600;font-size:35.2777px;line-height:1.25;font-family:'Smooch Sans';-inkscape-font-specification:'Smooch Sans Semi-Bold';text-align:center;letter-spacing:0px;text-anchor:middle;stroke-width:0.264583;fill:#ffffff;fill-opacity:1"
       d="m 63.563027,43.15776 c -1.45814,0 -2.56351,-0.18815 -3.3161,-0.56445 -0.75259,-0.37629 -1.25824,-0.87018 -1.51694,-1.48166 -0.2587,-0.61148 -0.38805,-1.25824 -0.38805,-1.94027 v -8.92526 c 0,-0.70555 0.12935,-1.35231 0.38805,-1.94027 0.28222,-0.61148 0.79963,-1.10537 1.55222,-1.48167 0.77611,-0.37629 1.91675,-0.56444 3.42194,-0.56444 l -3e-5,2.25777 c -0.77611,0 -1.37583,0.21167 -1.79916,0.635 -0.39981,0.39981 -0.59972,0.92898 -0.59972,1.5875 v 7.86692 c 0,0.65852 0.19991,1.18769 0.59972,1.5875 0.39981,0.37629 0.94074,0.56444 1.62277,0.56444 z"
       id="path2018" />
    <path
       id="path2020"
       style="font-weight:600;font-size:35.2777px;line-height:1.25;font-family:'Smooch Sans';-inkscape-font-specification:'Smooch Sans Semi-Bold';text-align:center;letter-spacing:0px;text-anchor:middle;fill:#ffffff;fill-opacity:1;stroke-width:0.264583"
       d="m 52.273999,20.96793 v 2.97812 h 2.963644 v -2.97812 z m 0,5.4684 v 16.58039 h 2.963644 V 26.43633 Z" />
    <path
       id="path2022"
       style="font-weight:600;font-size:35.2777px;line-height:1.25;font-family:'Smooch Sans';-inkscape-font-specification:'Smooch Sans Semi-Bold';text-align:center;letter-spacing:0px;text-anchor:middle;fill:#ffffff;fill-opacity:0.5;stroke-width:0.264583"
       d="m 88.998301,43.01665 c -0.82315,0 -1.45815,-0.0823 -1.905,-0.24695 -0.44685,-0.18815 -0.75259,-0.56444 -0.91722,-1.12888 -0.14111,-0.56445 -0.21166,-1.42287 -0.21166,-2.57528 v -9.13692 c 0,-0.87019 0.11759,-1.56398 0.35277,-2.08138 0.23519,-0.51741 0.635,-0.88194 1.19944,-1.09361 0.56445,-0.21167 1.3288,-0.3175 2.29306,-0.3175 h 3.91582 v -5.60916 h 2.96333 v 22.18968 z m 4.72721,-2.39889 V 28.83501 h -3.21027 c -0.635,0 -1.05833,0.10583 -1.27,0.3175 -0.21166,0.21167 -0.3175,0.635 -0.3175,1.27 v 8.43137 c 0,0.79963 0.10584,1.29351 0.3175,1.48166 0.21167,0.18815 0.59972,0.28222 1.16417,0.28222 z m -17.67414,2.39889 c -1.17593,0 -2.057874,-0.17639 -2.645834,-0.52917 -0.56444,-0.35278 -0.94074,-0.78787 -1.12889,-1.30527 -0.18814,-0.51741 -0.28222,-1.03481 -0.28222,-1.55222 V 26.43613 h 2.963334 v 11.92386 c 0,0.79963 0.19991,1.37583 0.59972,1.72861 0.39981,0.35277 0.99953,0.52916 1.79916,0.52916 h 2.39889 V 26.43613 h 2.96332 V 43.01665 Z M 63.527747,40.75887 c 0.89371,0 1.54046,-0.19991 1.94028,-0.59972 0.42333,-0.39981 0.635,-0.97602 0.635,-1.72861 v -7.69053 c 0,-0.65852 -0.19991,-1.18769 -0.59972,-1.5875 -0.39982,-0.42333 -0.99954,-0.635 -1.79917,-0.635 l 10e-6,-2.25777 c 1.38758,0 2.46943,0.18815 3.24554,0.56444 0.77611,0.35278 1.31704,0.82315 1.62278,1.41111 0.32926,0.58796 0.49388,1.24648 0.49388,1.97555 v 8.71359 c 0,0.77611 -0.16462,1.49343 -0.49388,2.15194 -0.30574,0.635 -0.85843,1.14065 -1.65805,1.51694 -0.79963,0.3763 -1.91676,0.56445 -3.35139,0.56445 z" />
    <path
       id="path2054"
       style="color:#000000;-inkscape-font-specification:'Smooch Sans Semi-Bold';fill:#ffffff;stroke-width:2.11667;paint-order:markers stroke fill;fill-opacity:1"
       d="m 72.774603,82.904892 c -1.81092,0 -3.163232,-0.34102 -4.056933,-1.02305 -0.870183,-0.68204 -1.305275,-1.6463 -1.305275,-2.89278 v -14.25219 c 0,-1.45814 0.411573,-2.51647 1.234719,-3.17499 0.846665,-0.68203 2.187217,-1.02305 4.021659,-1.02305 1.83444,0 3.19851,0.32926 4.09221,0.98777 0.8937,0.65852 1.34055,1.74037 1.34055,3.24555 v 2.57527 l -2.9986,0.38805 v -2.22249 c 0,-0.79963 -0.15287,-1.41111 -0.45861,-1.83444 -0.30574,-0.44685 -0.94074,-0.67027 -1.905,-0.67027 -0.91722,0 -1.528696,0.23518 -1.834436,0.70555 -0.282221,0.44685 -0.423332,1.03482 -0.423332,1.76389 v 12.8058 c 0,0.61148 0.164629,1.11713 0.493887,1.51694 0.329259,0.39981 0.917221,0.59972 1.763881,0.59972 0.87019,0 1.48167,-0.19991 1.83444,-0.59972 0.35278,-0.39981 0.52917,-0.90546 0.52917,-1.51694 v -1.97554 l 2.9986,-0.35278 v 3.03387 c 0,1.24648 -0.45861,2.21074 -1.37583,2.89278 -0.91722,0.68203 -2.23425,1.02305 -3.9511,1.02305 z m -0.247097,-11.994617 -0.211357,2.539897 h 2.78691 v 1.792139 l 2.998784,-0.352434 v -3.979602 h -2.081527 -0.917257 z" />
  </g>
</svg>
